<?xml version="1.0" encoding="utf-8"?>
<!-- Generator: Adobe Illustrator 24.3.0, SVG Export Plug-In . SVG Version: 6.00 Build 0)  -->
<svg version="1.1" id="Layer_1" xmlns="http://www.w3.org/2000/svg" xmlns:xlink="http://www.w3.org/1999/xlink" x="0px" y="0px"
	 viewBox="0 0 464.4 131.9" style="enable-background:new 0 0 464.4 131.9;" xml:space="preserve">
<style type="text/css">
	.st0{enable-background:new    ;}
	.st1{fill:#FFFFFF;}
	.st2{fill:none;stroke:#FFFFFF;stroke-width:0.25;stroke-miterlimit:10;}
	.st3{fill:none;stroke:#FFFFFF;stroke-width:0.5;stroke-miterlimit:10;}
	.st4{fill:#EE2D2B;}
	.st5{fill:#1FFFAD;}
	.st6{fill:#1571FF;}
	.st7{fill:#FFBF2A;}
	.st8{fill:#5FABFF;}
	.st9{fill:#D400C8;}
</style>
<g id="Layer_2_1_">
	<g id="texto">
		<g class="st0">
			<path class="st1" d="M0.5,128.9l2.3-1.9c0.9-0.7,1.2-1.1,1.2-1.7c0-0.6-0.4-0.9-0.9-0.9c-0.5,0-0.9,0.3-1.4,0.9l-1.1-0.9
				c0.7-0.9,1.4-1.4,2.6-1.4c1.4,0,2.4,0.8,2.4,2.2v0c0,1.2-0.6,1.7-1.8,2.7l-1.1,0.9h3v1.3H0.5V128.9z"/>
			<path class="st1" d="M6.8,126.7L6.8,126.7c0-2,1.3-3.6,3.1-3.6c1.8,0,3.1,1.6,3.1,3.6v0c0,2-1.2,3.6-3.1,3.6
				C8,130.2,6.8,128.7,6.8,126.7z M11.4,126.7L11.4,126.7c0-1.3-0.6-2.2-1.5-2.2c-0.9,0-1.5,0.9-1.5,2.2v0c0,1.3,0.6,2.2,1.5,2.2
				C10.8,128.9,11.4,127.9,11.4,126.7z"/>
		</g>
		<g class="st0">
			<path class="st1" d="M14.1,126.7L14.1,126.7c0-2,1.3-3.6,3.1-3.6c1.8,0,3.1,1.6,3.1,3.6v0c0,2-1.2,3.6-3.1,3.6
				S14.1,128.7,14.1,126.7z M18.7,126.7L18.7,126.7c0-1.3-0.6-2.2-1.5-2.2c-0.9,0-1.5,0.9-1.5,2.2v0c0,1.3,0.6,2.2,1.5,2.2
				C18.1,128.9,18.7,127.9,18.7,126.7z"/>
		</g>
		<g class="st0">
			<path class="st1" d="M24.5,124.5h-3.3v-1.3h5v1.2l-3.1,5.8h-1.7L24.5,124.5z"/>
		</g>
		<g class="st0">
			<path class="st1" d="M0.8,71.6h0.4v5.2h3.3v0.4H0.8V71.6z"/>
			<path class="st1" d="M5.4,76L5.4,76c0-0.9,0.7-1.3,1.8-1.3c0.6,0,1,0.1,1.4,0.2v-0.2c0-0.8-0.5-1.2-1.3-1.2
				c-0.5,0-0.9,0.1-1.3,0.3l-0.1-0.3C6.2,73.2,6.6,73,7.2,73c0.6,0,1,0.2,1.3,0.4c0.3,0.3,0.4,0.6,0.4,1.2v2.5H8.5v-0.7
				c-0.3,0.4-0.8,0.8-1.6,0.8C6.2,77.3,5.4,76.9,5.4,76z M8.5,75.7v-0.5C8.2,75.1,7.7,75,7.1,75c-0.9,0-1.3,0.4-1.3,1v0
				c0,0.6,0.6,0.9,1.2,0.9C7.8,76.9,8.5,76.4,8.5,75.7z"/>
			<path class="st1" d="M9.9,76.7l0.2-0.3c0.4,0.3,0.9,0.5,1.5,0.5c0.6,0,1-0.3,1-0.8v0c0-0.5-0.5-0.7-1.1-0.8
				c-0.7-0.2-1.4-0.4-1.4-1.1v0c0-0.7,0.6-1.1,1.3-1.1c0.5,0,1,0.2,1.4,0.4l-0.2,0.3c-0.4-0.2-0.8-0.4-1.3-0.4
				c-0.6,0-0.9,0.3-0.9,0.7v0c0,0.5,0.6,0.6,1.1,0.8c0.7,0.2,1.3,0.4,1.3,1.1v0c0,0.7-0.6,1.2-1.4,1.2C11,77.3,10.4,77,9.9,76.7z"/>
			<path class="st1" d="M14,75.2L14,75.2c0-1.2,0.8-2.1,1.9-2.1c1.1,0,1.9,0.9,1.9,2.1c0,0.1,0,0.1,0,0.2h-3.4
				c0.1,1,0.8,1.6,1.6,1.6c0.6,0,1.1-0.3,1.4-0.6l0.3,0.2c-0.4,0.4-0.9,0.8-1.7,0.8C14.9,77.3,14,76.4,14,75.2z M17.4,75
				c-0.1-0.8-0.5-1.6-1.5-1.6c-0.8,0-1.4,0.7-1.5,1.6H17.4z"/>
			<path class="st1" d="M18.9,73.1h0.4v1.2c0.3-0.7,1-1.3,1.8-1.2v0.4h0c-0.9,0-1.8,0.7-1.8,2v1.7h-0.4V73.1z"/>
			<path class="st1" d="M24.6,71.6h2c1.2,0,2.1,0.6,2.1,1.7v0c0,1.2-1,1.8-2.2,1.8H25v2.1h-0.4V71.6z M26.6,74.7
				c1,0,1.7-0.5,1.7-1.4v0c0-0.9-0.7-1.4-1.7-1.4H25v2.7H26.6z"/>
			<path class="st1" d="M29.9,73.1h0.4v1.2c0.3-0.7,1-1.3,1.8-1.2v0.4h0c-0.9,0-1.8,0.7-1.8,2v1.7h-0.4V73.1z"/>
			<path class="st1" d="M33.1,71.5h0.5V72h-0.5V71.5z M33.1,73.1h0.4v4.1h-0.4V73.1z"/>
			<path class="st1" d="M35.1,73.1h0.4v0.8c0.3-0.5,0.7-0.9,1.5-0.9c1,0,1.6,0.7,1.6,1.7v2.5h-0.4v-2.4c0-0.8-0.5-1.4-1.3-1.4
				c-0.8,0-1.4,0.6-1.4,1.5v2.4h-0.4V73.1z"/>
			<path class="st1" d="M40.2,76.1v-2.7h-0.6v-0.4h0.6v-1.3h0.4v1.3H42v0.4h-1.4v2.6c0,0.6,0.3,0.8,0.8,0.8c0.2,0,0.4,0,0.6-0.1v0.4
				c-0.2,0.1-0.4,0.1-0.7,0.1C40.7,77.3,40.2,76.9,40.2,76.1z"/>
		</g>
		<g class="st0">
			<path class="st1" d="M102.1,80.9h1.9c1.8,0,3,1.2,3,2.8v0c0,1.6-1.2,2.8-3,2.8h-1.9V80.9z M104,86.1c1.6,0,2.5-1.1,2.5-2.4v0
				c0-1.3-1-2.4-2.5-2.4h-1.4v4.8H104z"/>
			<path class="st1" d="M107.9,85.3L107.9,85.3c0-0.9,0.7-1.3,1.8-1.3c0.6,0,1,0.1,1.4,0.2V84c0-0.8-0.5-1.2-1.3-1.2
				c-0.5,0-0.9,0.1-1.3,0.3l-0.1-0.3c0.4-0.2,0.9-0.4,1.4-0.4c0.6,0,1,0.2,1.3,0.4c0.3,0.3,0.4,0.6,0.4,1.2v2.5h-0.4v-0.7
				c-0.3,0.4-0.8,0.8-1.6,0.8C108.7,86.6,107.9,86.2,107.9,85.3z M111.1,85v-0.5c-0.3-0.1-0.8-0.2-1.4-0.2c-0.9,0-1.3,0.4-1.3,1v0
				c0,0.6,0.6,0.9,1.2,0.9C110.4,86.3,111.1,85.7,111.1,85z"/>
			<path class="st1" d="M112.8,87.2l0.2-0.3c0.5,0.4,1,0.6,1.6,0.6c0.9,0,1.6-0.5,1.6-1.6v-0.6c-0.4,0.5-0.9,0.9-1.7,0.9
				c-1,0-2-0.8-2-1.9v0c0-1.2,1-1.9,2-1.9c0.8,0,1.4,0.4,1.7,0.9v-0.8h0.4v3.4c0,0.6-0.2,1.1-0.5,1.4c-0.4,0.4-0.9,0.5-1.5,0.5
				C114,87.8,113.3,87.6,112.8,87.2z M116.3,84.3L116.3,84.3c0-1-0.8-1.6-1.7-1.6c-0.9,0-1.6,0.6-1.6,1.5v0c0,0.9,0.7,1.6,1.6,1.6
				C115.4,85.9,116.3,85.2,116.3,84.3z"/>
			<path class="st1" d="M117.8,85.3L117.8,85.3c0-0.9,0.7-1.3,1.8-1.3c0.6,0,1,0.1,1.4,0.2V84c0-0.8-0.5-1.2-1.3-1.2
				c-0.5,0-0.9,0.1-1.3,0.3l-0.1-0.3c0.4-0.2,0.9-0.4,1.4-0.4c0.6,0,1,0.2,1.3,0.4c0.3,0.3,0.4,0.6,0.4,1.2v2.5h-0.4v-0.7
				c-0.3,0.4-0.8,0.8-1.6,0.8C118.6,86.6,117.8,86.2,117.8,85.3z M120.9,85v-0.5c-0.3-0.1-0.8-0.2-1.4-0.2c-0.9,0-1.3,0.4-1.3,1v0
				c0,0.6,0.6,0.9,1.2,0.9C120.2,86.3,120.9,85.7,120.9,85z"/>
			<path class="st1" d="M122.7,82.5h0.4v0.8c0.3-0.5,0.7-0.9,1.5-0.9c1,0,1.6,0.7,1.6,1.7v2.5h-0.4v-2.4c0-0.8-0.5-1.4-1.3-1.4
				c-0.8,0-1.4,0.6-1.4,1.5v2.4h-0.4V82.5z"/>
			<path class="st1" d="M127.3,84.5L127.3,84.5c0-1.2,0.8-2.1,1.9-2.1c1.1,0,1.9,0.9,1.9,2.1c0,0.1,0,0.1,0,0.2h-3.4
				c0.1,1,0.8,1.6,1.6,1.6c0.6,0,1.1-0.3,1.4-0.6l0.3,0.2c-0.4,0.4-0.9,0.8-1.7,0.8C128.3,86.6,127.3,85.8,127.3,84.5z M130.7,84.3
				c-0.1-0.8-0.5-1.6-1.5-1.6c-0.8,0-1.4,0.7-1.5,1.6H130.7z"/>
			<path class="st1" d="M132.5,85.5v-2.7h-0.6v-0.4h0.6v-1.3h0.4v1.3h1.4v0.4h-1.4v2.6c0,0.6,0.3,0.8,0.8,0.8c0.2,0,0.4,0,0.6-0.1
				v0.4c-0.2,0.1-0.4,0.1-0.7,0.1C133,86.6,132.5,86.3,132.5,85.5z"/>
		</g>
		<g class="st0">
			<path class="st1" d="M136.7,68.1h4v0.4h-3.6v2.2h3.2v0.4h-3.2v2.2h3.6v0.4h-4V68.1z"/>
		</g>
		<g class="st0">
			<path class="st1" d="M142,69.6h0.4v1.2c0.3-0.7,1-1.3,1.8-1.2V70h0c-0.9,0-1.8,0.7-1.8,2v1.7H142V69.6z"/>
		</g>
		<g class="st0">
			<path class="st1" d="M144.7,71.7L144.7,71.7c0-1.2,0.8-2.1,1.9-2.1c1.1,0,1.9,0.9,1.9,2.1c0,0.1,0,0.1,0,0.2h-3.4
				c0.1,1,0.8,1.6,1.6,1.6c0.6,0,1.1-0.3,1.4-0.6l0.3,0.2c-0.4,0.4-0.9,0.8-1.7,0.8C145.6,73.8,144.7,72.9,144.7,71.7z M148.1,71.5
				c-0.1-0.8-0.5-1.6-1.5-1.6c-0.8,0-1.4,0.7-1.5,1.6H148.1z"/>
		</g>
		<g class="st0">
			<path class="st1" d="M152.1,68.1h2c1.2,0,2.1,0.6,2.1,1.7v0c0,1.2-1,1.8-2.2,1.8h-1.5v2.1h-0.4V68.1z M154.1,71.2
				c1,0,1.7-0.5,1.7-1.4v0c0-0.9-0.7-1.4-1.7-1.4h-1.6v2.7H154.1z"/>
		</g>
		<g class="st0">
			<path class="st1" d="M157.4,72.1v-2.5h0.4V72c0,0.8,0.5,1.4,1.3,1.4c0.8,0,1.4-0.6,1.4-1.5v-2.4h0.4v4.1h-0.4v-0.8
				c-0.3,0.5-0.7,0.9-1.5,0.9C158,73.8,157.4,73.1,157.4,72.1z"/>
			<path class="st1" d="M162.7,72.8v0.9h-0.4v-5.8h0.4v2.7c0.4-0.5,0.9-1,1.7-1c1,0,2,0.8,2,2.1v0c0,1.3-1,2.1-2,2.1
				C163.6,73.8,163.1,73.3,162.7,72.8z M166,71.7L166,71.7c0-1.1-0.7-1.8-1.6-1.8c-0.8,0-1.7,0.7-1.7,1.8v0c0,1,0.8,1.8,1.7,1.8
				C165.3,73.4,166,72.8,166,71.7z"/>
			<path class="st1" d="M167.7,67.9h0.4v5.8h-0.4V67.9z"/>
			<path class="st1" d="M169.6,68h0.5v0.5h-0.5V68z M169.7,69.6h0.4v4.1h-0.4V69.6z"/>
			<path class="st1" d="M171.3,71.7L171.3,71.7c0-1.2,0.9-2.2,2.1-2.2c0.8,0,1.2,0.4,1.6,0.8l-0.3,0.3c-0.4-0.4-0.8-0.7-1.4-0.7
				c-0.9,0-1.6,0.8-1.6,1.8v0c0,1,0.7,1.8,1.7,1.8c0.6,0,1-0.3,1.4-0.7l0.3,0.2c-0.4,0.5-0.9,0.8-1.7,0.8
				C172.2,73.8,171.3,72.8,171.3,71.7z"/>
			<path class="st1" d="M176.2,68h0.5v0.5h-0.5V68z M176.2,69.6h0.4v4.1h-0.4V69.6z"/>
			<path class="st1" d="M177.9,71.7L177.9,71.7c0-1.3,1-2.2,2-2.2c0.8,0,1.3,0.5,1.7,1v-2.6h0.4v5.8h-0.4v-0.9c-0.4,0.5-0.9,1-1.7,1
				C178.9,73.8,177.9,73,177.9,71.7z M181.6,71.7L181.6,71.7c0-1.1-0.8-1.8-1.7-1.8c-0.9,0-1.6,0.6-1.6,1.7v0c0,1.1,0.7,1.8,1.6,1.8
				C180.8,73.4,181.6,72.7,181.6,71.7z"/>
			<path class="st1" d="M183.1,72.5L183.1,72.5c0-0.9,0.7-1.3,1.8-1.3c0.6,0,1,0.1,1.4,0.2v-0.2c0-0.8-0.5-1.2-1.3-1.2
				c-0.5,0-0.9,0.1-1.3,0.3l-0.1-0.3c0.4-0.2,0.9-0.4,1.4-0.4c0.6,0,1,0.2,1.3,0.4c0.3,0.3,0.4,0.6,0.4,1.2v2.5h-0.4V73
				c-0.3,0.4-0.8,0.8-1.6,0.8C183.9,73.8,183.1,73.4,183.1,72.5z M186.2,72.2v-0.5c-0.3-0.1-0.8-0.2-1.4-0.2c-0.9,0-1.3,0.4-1.3,1v0
				c0,0.6,0.6,0.9,1.2,0.9C185.5,73.4,186.2,72.9,186.2,72.2z"/>
			<path class="st1" d="M187.8,71.7L187.8,71.7c0-1.3,1-2.2,2-2.2c0.8,0,1.3,0.5,1.7,1v-2.6h0.4v5.8h-0.4v-0.9c-0.4,0.5-0.9,1-1.7,1
				C188.8,73.8,187.8,73,187.8,71.7z M191.5,71.7L191.5,71.7c0-1.1-0.8-1.8-1.7-1.8c-0.9,0-1.6,0.6-1.6,1.7v0c0,1.1,0.7,1.8,1.6,1.8
				C190.6,73.4,191.5,72.7,191.5,71.7z"/>
		</g>
		<g class="st0">
			<path class="st1" d="M204.4,55.7L204.4,55.7c0-1.2,0.8-2.1,1.9-2.1c1.1,0,1.9,0.9,1.9,2.1c0,0.1,0,0.1,0,0.2h-3.4
				c0.1,1,0.8,1.6,1.6,1.6c0.6,0,1.1-0.3,1.4-0.6l0.3,0.2c-0.4,0.4-0.9,0.8-1.7,0.8C205.3,57.8,204.4,57,204.4,55.7z M207.8,55.5
				c-0.1-0.8-0.5-1.6-1.5-1.6c-0.8,0-1.4,0.7-1.5,1.6H207.8z"/>
			<path class="st1" d="M209.4,52.2h0.4l2.2,3.3l2.2-3.3h0.4v5.6h-0.4v-4.9l-2.2,3.2h0l-2.2-3.2v4.9h-0.4V52.2z"/>
			<path class="st1" d="M216,55.7L216,55.7c0-1.2,0.9-2.2,2.1-2.2c1.2,0,2.1,1,2.1,2.1v0c0,1.1-0.9,2.1-2.1,2.1
				C216.9,57.8,216,56.9,216,55.7z M219.8,55.7L219.8,55.7c0-1-0.7-1.8-1.7-1.8c-1,0-1.7,0.8-1.7,1.8v0c0,1,0.7,1.8,1.7,1.8
				C219.1,57.5,219.8,56.7,219.8,55.7z"/>
			<path class="st1" d="M221.6,56.7V54H221v-0.4h0.6v-1.3h0.4v1.3h1.4V54H222v2.6c0,0.6,0.3,0.8,0.8,0.8c0.2,0,0.4,0,0.6-0.1v0.4
				c-0.2,0.1-0.4,0.1-0.7,0.1C222.1,57.8,221.6,57.5,221.6,56.7z"/>
			<path class="st1" d="M224.6,52.1h0.5v0.5h-0.5V52.1z M224.7,53.7h0.4v4.1h-0.4V53.7z"/>
		</g>
		<g class="st0">
			<path class="st1" d="M226.2,53.7h0.5l1.5,3.6l1.6-3.6h0.4l-1.8,4.1H228L226.2,53.7z"/>
		</g>
		<g class="st0">
			<path class="st1" d="M230.7,55.7L230.7,55.7c0-1.2,0.9-2.2,2.1-2.2c1.2,0,2.1,1,2.1,2.1v0c0,1.1-0.9,2.1-2.1,2.1
				C231.6,57.8,230.7,56.9,230.7,55.7z M234.5,55.7L234.5,55.7c0-1-0.7-1.8-1.7-1.8c-1,0-1.7,0.8-1.7,1.8v0c0,1,0.7,1.8,1.7,1.8
				C233.8,57.5,234.5,56.7,234.5,55.7z"/>
		</g>
		<g class="st0">
			<path class="st1" d="M238.3,56.9l0.3-0.3c0.6,0.6,1.2,0.8,2,0.8c0.8,0,1.4-0.5,1.4-1.1v0c0-0.6-0.3-0.9-1.6-1.2
				c-1.3-0.3-1.9-0.7-1.9-1.6v0c0-0.8,0.8-1.5,1.8-1.5c0.8,0,1.4,0.2,1.9,0.7l-0.3,0.3c-0.5-0.5-1.1-0.6-1.7-0.6
				c-0.8,0-1.4,0.5-1.4,1.1v0c0,0.6,0.3,1,1.6,1.2c1.3,0.3,1.8,0.7,1.8,1.5v0c0,0.9-0.8,1.5-1.9,1.5
				C239.6,57.8,238.9,57.5,238.3,56.9z"/>
		</g>
		<g class="st0">
			<path class="st1" d="M243.8,56.7V54h-0.6v-0.4h0.6v-1.3h0.4v1.3h1.4V54h-1.4v2.6c0,0.6,0.3,0.8,0.8,0.8c0.2,0,0.4,0,0.6-0.1v0.4
				c-0.2,0.1-0.4,0.1-0.7,0.1C244.3,57.8,243.8,57.5,243.8,56.7z"/>
			<path class="st1" d="M246.7,56.2v-2.5h0.4v2.4c0,0.8,0.5,1.4,1.3,1.4c0.8,0,1.4-0.6,1.4-1.5v-2.4h0.4v4.1h-0.4V57
				c-0.3,0.5-0.7,0.9-1.5,0.9C247.3,57.8,246.7,57.1,246.7,56.2z"/>
			<path class="st1" d="M251.5,55.7L251.5,55.7c0-1.3,1-2.2,2-2.2c0.8,0,1.3,0.5,1.7,1v-2.6h0.4v5.8h-0.4v-0.9c-0.4,0.5-0.9,1-1.7,1
				C252.5,57.8,251.5,57.1,251.5,55.7z M255.1,55.7L255.1,55.7c0-1.1-0.8-1.8-1.7-1.8c-0.9,0-1.6,0.6-1.6,1.7v0
				c0,1.1,0.7,1.8,1.6,1.8C254.3,57.5,255.1,56.8,255.1,55.7z"/>
			<path class="st1" d="M257,52.1h0.5v0.5H257V52.1z M257.1,53.7h0.4v4.1h-0.4V53.7z"/>
			<path class="st1" d="M258.7,55.7L258.7,55.7c0-1.2,0.9-2.2,2.1-2.2c1.2,0,2.1,1,2.1,2.1v0c0,1.1-0.9,2.1-2.1,2.1
				C259.6,57.8,258.7,56.9,258.7,55.7z M262.5,55.7L262.5,55.7c0-1-0.7-1.8-1.7-1.8c-1,0-1.7,0.8-1.7,1.8v0c0,1,0.7,1.8,1.7,1.8
				C261.8,57.5,262.5,56.7,262.5,55.7z"/>
			<path class="st1" d="M266.6,52.2h1.9c1.8,0,3,1.2,3,2.8v0c0,1.6-1.2,2.8-3,2.8h-1.9V52.2z M268.5,57.4c1.6,0,2.5-1.1,2.5-2.4v0
				c0-1.3-1-2.4-2.5-2.4H267v4.8H268.5z"/>
			<path class="st1" d="M272.5,55.7L272.5,55.7c0-1.2,0.8-2.1,1.9-2.1c1.1,0,1.9,0.9,1.9,2.1c0,0.1,0,0.1,0,0.2h-3.4
				c0.1,1,0.8,1.6,1.6,1.6c0.6,0,1.1-0.3,1.4-0.6l0.3,0.2c-0.4,0.4-0.9,0.8-1.7,0.8C273.4,57.8,272.5,57,272.5,55.7z M275.9,55.5
				c-0.1-0.8-0.5-1.6-1.5-1.6c-0.8,0-1.4,0.7-1.5,1.6H275.9z"/>
			<path class="st1" d="M277.1,57.2l0.2-0.3c0.4,0.3,0.9,0.5,1.5,0.5c0.6,0,1-0.3,1-0.8v0c0-0.5-0.5-0.7-1.1-0.8
				c-0.7-0.2-1.4-0.4-1.4-1.1v0c0-0.7,0.6-1.1,1.3-1.1c0.5,0,1,0.2,1.4,0.4l-0.2,0.3c-0.4-0.2-0.8-0.4-1.3-0.4
				c-0.6,0-0.9,0.3-0.9,0.7v0c0,0.5,0.6,0.6,1.1,0.8c0.7,0.2,1.3,0.4,1.3,1.1v0c0,0.7-0.6,1.2-1.4,1.2
				C278.2,57.8,277.5,57.6,277.1,57.2z"/>
			<path class="st1" d="M281.4,52.1h0.5v0.5h-0.5V52.1z M281.5,53.7h0.4v4.1h-0.4V53.7z"/>
			<path class="st1" d="M283.3,58.4l0.2-0.3c0.5,0.4,1,0.6,1.6,0.6c0.9,0,1.6-0.5,1.6-1.6v-0.6c-0.4,0.5-0.9,0.9-1.7,0.9
				c-1,0-2-0.8-2-1.9v0c0-1.2,1-1.9,2-1.9c0.8,0,1.4,0.4,1.7,0.9v-0.8h0.4v3.4c0,0.6-0.2,1.1-0.5,1.4c-0.4,0.4-0.9,0.5-1.5,0.5
				C284.5,59,283.9,58.8,283.3,58.4z M286.8,55.5L286.8,55.5c0-1-0.8-1.6-1.7-1.6c-0.9,0-1.6,0.6-1.6,1.5v0c0,0.9,0.7,1.6,1.6,1.6
				C286,57.1,286.8,56.4,286.8,55.5z"/>
			<path class="st1" d="M288.7,53.7h0.4v0.8c0.3-0.5,0.7-0.9,1.5-0.9c1,0,1.6,0.7,1.6,1.7v2.5h-0.4v-2.4c0-0.8-0.5-1.4-1.3-1.4
				c-0.8,0-1.4,0.6-1.4,1.5v2.4h-0.4V53.7z"/>
		</g>
		<g class="st0">
			<path class="st1" d="M375.9,55.7L375.9,55.7c0-1.2,0.8-2.1,1.9-2.1c1.1,0,1.9,0.9,1.9,2.1c0,0.1,0,0.1,0,0.2h-3.4
				c0.1,1,0.8,1.6,1.6,1.6c0.6,0,1.1-0.3,1.4-0.6l0.3,0.2c-0.4,0.4-0.9,0.8-1.7,0.8C376.8,57.8,375.9,57,375.9,55.7z M379.3,55.5
				c-0.1-0.8-0.5-1.6-1.5-1.6c-0.8,0-1.4,0.7-1.5,1.6H379.3z"/>
			<path class="st1" d="M380.9,52.2h0.4l2.2,3.3l2.2-3.3h0.4v5.6h-0.4v-4.9l-2.2,3.2h0l-2.2-3.2v4.9h-0.4V52.2z"/>
			<path class="st1" d="M387.5,55.7L387.5,55.7c0-1.2,0.9-2.2,2.1-2.2c1.2,0,2.1,1,2.1,2.1v0c0,1.1-0.9,2.1-2.1,2.1
				C388.4,57.8,387.5,56.9,387.5,55.7z M391.3,55.7L391.3,55.7c0-1-0.7-1.8-1.7-1.8c-1,0-1.7,0.8-1.7,1.8v0c0,1,0.7,1.8,1.7,1.8
				C390.6,57.5,391.3,56.7,391.3,55.7z"/>
			<path class="st1" d="M393.1,56.7V54h-0.6v-0.4h0.6v-1.3h0.4v1.3h1.4V54h-1.4v2.6c0,0.6,0.3,0.8,0.8,0.8c0.2,0,0.4,0,0.6-0.1v0.4
				c-0.2,0.1-0.4,0.1-0.7,0.1C393.6,57.8,393.1,57.5,393.1,56.7z"/>
			<path class="st1" d="M396.1,52.1h0.5v0.5h-0.5V52.1z M396.2,53.7h0.4v4.1h-0.4V53.7z"/>
		</g>
		<g class="st0">
			<path class="st1" d="M397.7,53.7h0.5l1.5,3.6l1.6-3.6h0.4l-1.8,4.1h-0.3L397.7,53.7z"/>
		</g>
		<g class="st0">
			<path class="st1" d="M402.2,55.7L402.2,55.7c0-1.2,0.9-2.2,2.1-2.2c1.2,0,2.1,1,2.1,2.1v0c0,1.1-0.9,2.1-2.1,2.1
				C403.1,57.8,402.2,56.9,402.2,55.7z M406,55.7L406,55.7c0-1-0.7-1.8-1.7-1.8c-1,0-1.7,0.8-1.7,1.8v0c0,1,0.7,1.8,1.7,1.8
				C405.3,57.5,406,56.7,406,55.7z"/>
		</g>
		<g class="st0">
			<path class="st1" d="M409.8,56.9l0.3-0.3c0.6,0.6,1.2,0.8,2,0.8c0.8,0,1.4-0.5,1.4-1.1v0c0-0.6-0.3-0.9-1.6-1.2
				c-1.3-0.3-1.9-0.7-1.9-1.6v0c0-0.8,0.8-1.5,1.8-1.5c0.8,0,1.4,0.2,1.9,0.7l-0.3,0.3c-0.5-0.5-1.1-0.6-1.7-0.6
				c-0.8,0-1.4,0.5-1.4,1.1v0c0,0.6,0.3,1,1.6,1.2c1.3,0.3,1.8,0.7,1.8,1.5v0c0,0.9-0.8,1.5-1.9,1.5
				C411.1,57.8,410.4,57.5,409.8,56.9z"/>
		</g>
		<g class="st0">
			<path class="st1" d="M415.3,56.7V54h-0.6v-0.4h0.6v-1.3h0.4v1.3h1.4V54h-1.4v2.6c0,0.6,0.3,0.8,0.8,0.8c0.2,0,0.4,0,0.6-0.1v0.4
				c-0.2,0.1-0.4,0.1-0.7,0.1C415.9,57.8,415.3,57.5,415.3,56.7z"/>
			<path class="st1" d="M418.2,56.2v-2.5h0.4v2.4c0,0.8,0.5,1.4,1.3,1.4c0.8,0,1.4-0.6,1.4-1.5v-2.4h0.4v4.1h-0.4V57
				c-0.3,0.5-0.7,0.9-1.5,0.9C418.8,57.8,418.2,57.1,418.2,56.2z"/>
			<path class="st1" d="M423,55.7L423,55.7c0-1.3,1-2.2,2-2.2c0.8,0,1.3,0.5,1.7,1v-2.6h0.4v5.8h-0.4v-0.9c-0.4,0.5-0.9,1-1.7,1
				C424,57.8,423,57.1,423,55.7z M426.6,55.7L426.6,55.7c0-1.1-0.8-1.8-1.7-1.8c-0.9,0-1.6,0.6-1.6,1.7v0c0,1.1,0.7,1.8,1.6,1.8
				C425.8,57.5,426.6,56.8,426.6,55.7z"/>
			<path class="st1" d="M428.5,52.1h0.5v0.5h-0.5V52.1z M428.6,53.7h0.4v4.1h-0.4V53.7z"/>
			<path class="st1" d="M430.2,55.7L430.2,55.7c0-1.2,0.9-2.2,2.1-2.2c1.2,0,2.1,1,2.1,2.1v0c0,1.1-0.9,2.1-2.1,2.1
				C431.1,57.8,430.2,56.9,430.2,55.7z M434,55.7L434,55.7c0-1-0.7-1.8-1.7-1.8c-1,0-1.7,0.8-1.7,1.8v0c0,1,0.7,1.8,1.7,1.8
				C433.3,57.5,434,56.7,434,55.7z"/>
			<path class="st1" d="M438.1,52.2h1.9c1.8,0,3,1.2,3,2.8v0c0,1.6-1.2,2.8-3,2.8h-1.9V52.2z M440,57.4c1.6,0,2.5-1.1,2.5-2.4v0
				c0-1.3-1-2.4-2.5-2.4h-1.4v4.8H440z"/>
			<path class="st1" d="M444,55.7L444,55.7c0-1.2,0.8-2.1,1.9-2.1c1.1,0,1.9,0.9,1.9,2.1c0,0.1,0,0.1,0,0.2h-3.4
				c0.1,1,0.8,1.6,1.6,1.6c0.6,0,1.1-0.3,1.4-0.6l0.3,0.2c-0.4,0.4-0.9,0.8-1.7,0.8C444.9,57.8,444,57,444,55.7z M447.4,55.5
				c-0.1-0.8-0.5-1.6-1.5-1.6c-0.8,0-1.4,0.7-1.5,1.6H447.4z"/>
			<path class="st1" d="M448.6,57.2l0.2-0.3c0.4,0.3,0.9,0.5,1.5,0.5c0.6,0,1-0.3,1-0.8v0c0-0.5-0.5-0.7-1.1-0.8
				c-0.7-0.2-1.4-0.4-1.4-1.1v0c0-0.7,0.6-1.1,1.3-1.1c0.5,0,1,0.2,1.4,0.4l-0.2,0.3c-0.4-0.2-0.8-0.4-1.3-0.4
				c-0.6,0-0.9,0.3-0.9,0.7v0c0,0.5,0.6,0.6,1.1,0.8c0.7,0.2,1.3,0.4,1.3,1.1v0c0,0.7-0.6,1.2-1.4,1.2
				C449.7,57.8,449,57.6,448.6,57.2z"/>
			<path class="st1" d="M452.9,52.1h0.5v0.5h-0.5V52.1z M453,53.7h0.4v4.1H453V53.7z"/>
			<path class="st1" d="M454.8,58.4l0.2-0.3c0.5,0.4,1,0.6,1.6,0.6c0.9,0,1.6-0.5,1.6-1.6v-0.6c-0.4,0.5-0.9,0.9-1.7,0.9
				c-1,0-2-0.8-2-1.9v0c0-1.2,1-1.9,2-1.9c0.8,0,1.4,0.4,1.7,0.9v-0.8h0.4v3.4c0,0.6-0.2,1.1-0.5,1.4c-0.4,0.4-0.9,0.5-1.5,0.5
				C456,59,455.4,58.8,454.8,58.4z M458.3,55.5L458.3,55.5c0-1-0.8-1.6-1.7-1.6c-0.9,0-1.6,0.6-1.6,1.5v0c0,0.9,0.7,1.6,1.6,1.6
				C457.5,57.1,458.3,56.4,458.3,55.5z"/>
			<path class="st1" d="M460.2,53.7h0.4v0.8c0.3-0.5,0.7-0.9,1.5-0.9c1,0,1.6,0.7,1.6,1.7v2.5h-0.4v-2.4c0-0.8-0.5-1.4-1.3-1.4
				c-0.8,0-1.4,0.6-1.4,1.5v2.4h-0.4V53.7z"/>
		</g>
		<g class="st0">
			<path class="st1" d="M240.3,22L240.3,22c0-1.6,1.2-2.9,2.8-2.9c1,0,1.6,0.4,2.2,0.9l-0.3,0.3c-0.5-0.5-1-0.8-1.9-0.8
				c-1.3,0-2.4,1.1-2.4,2.5v0c0,1.4,1,2.5,2.4,2.5c0.8,0,1.4-0.3,1.9-0.9l0.3,0.3c-0.6,0.6-1.2,1-2.2,1
				C241.5,24.9,240.3,23.6,240.3,22z"/>
		</g>
		<g class="st0">
			<path class="st1" d="M246,22.8L246,22.8c0-1.2,0.9-2.2,2.1-2.2c1.2,0,2.1,1,2.1,2.1v0c0,1.1-0.9,2.1-2.1,2.1
				C246.9,24.9,246,23.9,246,22.8z M249.8,22.8L249.8,22.8c0-1-0.7-1.8-1.7-1.8c-1,0-1.7,0.8-1.7,1.8v0c0,1,0.7,1.8,1.7,1.8
				C249.1,24.5,249.8,23.8,249.8,22.8z"/>
			<path class="st1" d="M251.5,19h0.4v5.8h-0.4V19z"/>
			<path class="st1" d="M253.1,22.8L253.1,22.8c0-1.2,0.8-2.1,1.9-2.1c1.1,0,1.9,0.9,1.9,2.1c0,0.1,0,0.1,0,0.2h-3.4
				c0.1,1,0.8,1.6,1.6,1.6c0.6,0,1.1-0.3,1.4-0.6l0.3,0.2c-0.4,0.4-0.9,0.8-1.7,0.8C254,24.9,253.1,24.1,253.1,22.8z M256.5,22.6
				c-0.1-0.8-0.5-1.6-1.5-1.6c-0.8,0-1.4,0.7-1.5,1.6H256.5z"/>
			<path class="st1" d="M258,25.5l0.2-0.3c0.5,0.4,1,0.6,1.6,0.6c0.9,0,1.6-0.5,1.6-1.6v-0.6c-0.4,0.5-0.9,0.9-1.7,0.9
				c-1,0-2-0.8-2-1.9v0c0-1.2,1-1.9,2-1.9c0.8,0,1.4,0.4,1.7,0.9v-0.8h0.4v3.4c0,0.6-0.2,1.1-0.5,1.4c-0.4,0.4-0.9,0.5-1.5,0.5
				C259.2,26.1,258.5,25.9,258,25.5z M261.5,22.6L261.5,22.6c0-1-0.8-1.6-1.7-1.6c-0.9,0-1.6,0.6-1.6,1.5v0c0,0.9,0.7,1.6,1.6,1.6
				C260.6,24.1,261.5,23.5,261.5,22.6z"/>
			<path class="st1" d="M263.3,19.1h0.5v0.5h-0.5V19.1z M263.4,20.7h0.4v4.1h-0.4V20.7z"/>
			<path class="st1" d="M265,22.8L265,22.8c0-1.2,0.9-2.2,2.1-2.2c1.2,0,2.1,1,2.1,2.1v0c0,1.1-0.9,2.1-2.1,2.1
				C265.9,24.9,265,23.9,265,22.8z M268.8,22.8L268.8,22.8c0-1-0.7-1.8-1.7-1.8c-1,0-1.7,0.8-1.7,1.8v0c0,1,0.7,1.8,1.7,1.8
				C268.1,24.5,268.8,23.8,268.8,22.8z"/>
			<path class="st1" d="M272.6,22.8L272.6,22.8c0-1.3,1-2.2,2-2.2c0.8,0,1.3,0.5,1.7,1V19h0.4v5.8h-0.4v-0.9c-0.4,0.5-0.9,1-1.7,1
				C273.6,24.9,272.6,24.1,272.6,22.8z M276.3,22.8L276.3,22.8c0-1.1-0.8-1.8-1.7-1.8c-0.9,0-1.6,0.6-1.6,1.7v0
				c0,1.1,0.7,1.8,1.6,1.8C275.5,24.5,276.3,23.8,276.3,22.8z"/>
			<path class="st1" d="M277.8,22.8L277.8,22.8c0-1.2,0.8-2.1,1.9-2.1c1.1,0,1.9,0.9,1.9,2.1c0,0.1,0,0.1,0,0.2h-3.4
				c0.1,1,0.8,1.6,1.6,1.6c0.6,0,1.1-0.3,1.4-0.6l0.3,0.2c-0.4,0.4-0.9,0.8-1.7,0.8C278.8,24.9,277.8,24.1,277.8,22.8z M281.2,22.6
				c-0.1-0.8-0.5-1.6-1.5-1.6c-0.8,0-1.4,0.7-1.5,1.6H281.2z"/>
		</g>
		<g class="st0">
			<path class="st1" d="M285.3,19.2h4v0.4h-3.6v2.2h3.2v0.4h-3.2v2.2h3.6v0.4h-4V19.2z"/>
		</g>
		<g class="st0">
			<path class="st1" d="M290.2,22.8L290.2,22.8c0-1.2,0.9-2.2,2.1-2.2c0.8,0,1.2,0.4,1.6,0.8l-0.3,0.3c-0.4-0.4-0.8-0.7-1.4-0.7
				c-0.9,0-1.6,0.8-1.6,1.8v0c0,1,0.7,1.8,1.7,1.8c0.6,0,1-0.3,1.4-0.7l0.3,0.2c-0.4,0.5-0.9,0.8-1.7,0.8
				C291.1,24.9,290.2,23.9,290.2,22.8z"/>
		</g>
		<g class="st0">
			<path class="st1" d="M294.7,22.8L294.7,22.8c0-1.2,0.9-2.2,2.1-2.2c1.2,0,2.1,1,2.1,2.1v0c0,1.1-0.9,2.1-2.1,2.1
				C295.5,24.9,294.7,23.9,294.7,22.8z M298.4,22.8L298.4,22.8c0-1-0.7-1.8-1.7-1.8c-1,0-1.7,0.8-1.7,1.8v0c0,1,0.7,1.8,1.7,1.8
				C297.7,24.5,298.4,23.8,298.4,22.8z"/>
			<path class="st1" d="M300.1,20.7h0.4v0.8c0.3-0.5,0.7-0.9,1.5-0.9c1,0,1.6,0.7,1.6,1.7v2.5h-0.4v-2.4c0-0.8-0.5-1.4-1.3-1.4
				c-0.8,0-1.4,0.6-1.4,1.5v2.4h-0.4V20.7z"/>
			<path class="st1" d="M304.7,22.8L304.7,22.8c0-1.2,0.9-2.2,2.1-2.2c1.2,0,2.1,1,2.1,2.1v0c0,1.1-0.9,2.1-2.1,2.1
				C305.6,24.9,304.7,23.9,304.7,22.8z M308.4,22.8L308.4,22.8c0-1-0.7-1.8-1.7-1.8c-1,0-1.7,0.8-1.7,1.8v0c0,1,0.7,1.8,1.7,1.8
				C307.7,24.5,308.4,23.8,308.4,22.8z"/>
			<path class="st1" d="M310.1,20.7h0.4v0.7c0.3-0.4,0.6-0.8,1.4-0.8c0.7,0,1.2,0.4,1.4,0.9c0.3-0.5,0.7-0.9,1.5-0.9
				c1,0,1.6,0.7,1.6,1.7v2.5h-0.4v-2.4c0-0.9-0.5-1.4-1.2-1.4c-0.7,0-1.3,0.5-1.3,1.4v2.4H313v-2.4c0-0.8-0.5-1.4-1.2-1.4
				c-0.7,0-1.3,0.6-1.3,1.5v2.4h-0.4V20.7z"/>
			<path class="st1" d="M317.7,19.1h0.5v0.5h-0.5V19.1z M317.7,20.7h0.4v4.1h-0.4V20.7z"/>
		</g>
		<g class="st0">
			<path class="st1" d="M319.3,24.3l0.2-0.3c0.4,0.3,0.9,0.5,1.5,0.5c0.6,0,1-0.3,1-0.8v0c0-0.5-0.5-0.7-1.1-0.8
				c-0.7-0.2-1.4-0.4-1.4-1.1v0c0-0.7,0.6-1.1,1.3-1.1c0.5,0,1,0.2,1.4,0.4l-0.2,0.3c-0.4-0.2-0.8-0.4-1.3-0.4
				c-0.6,0-0.9,0.3-0.9,0.7v0c0,0.5,0.6,0.6,1.1,0.8c0.7,0.2,1.3,0.4,1.3,1.1v0c0,0.7-0.6,1.2-1.4,1.2
				C320.4,24.9,319.8,24.7,319.3,24.3z"/>
		</g>
		<g class="st0">
			<path class="st1" d="M323.8,23.8v-2.7h-0.6v-0.4h0.6v-1.3h0.4v1.3h1.4v0.4h-1.4v2.6c0,0.6,0.3,0.8,0.8,0.8c0.2,0,0.4,0,0.6-0.1
				v0.4c-0.2,0.1-0.4,0.1-0.7,0.1C324.3,24.9,323.8,24.5,323.8,23.8z"/>
			<path class="st1" d="M326.4,23.6L326.4,23.6c0-0.9,0.7-1.3,1.8-1.3c0.6,0,1,0.1,1.4,0.2v-0.2c0-0.8-0.5-1.2-1.3-1.2
				c-0.5,0-0.9,0.1-1.3,0.3l-0.1-0.3c0.4-0.2,0.9-0.4,1.4-0.4c0.6,0,1,0.2,1.3,0.4c0.3,0.3,0.4,0.6,0.4,1.2v2.5h-0.4v-0.7
				c-0.3,0.4-0.8,0.8-1.6,0.8C327.3,24.9,326.4,24.5,326.4,23.6z M329.6,23.3v-0.5c-0.3-0.1-0.8-0.2-1.4-0.2c-0.9,0-1.3,0.4-1.3,1v0
				c0,0.6,0.6,0.9,1.2,0.9C328.9,24.5,329.6,24,329.6,23.3z"/>
			<path class="st1" d="M331,24.3l0.2-0.3c0.4,0.3,0.9,0.5,1.5,0.5c0.6,0,1-0.3,1-0.8v0c0-0.5-0.5-0.7-1.1-0.8
				c-0.7-0.2-1.4-0.4-1.4-1.1v0c0-0.7,0.6-1.1,1.3-1.1c0.5,0,1,0.2,1.4,0.4l-0.2,0.3c-0.4-0.2-0.8-0.4-1.3-0.4
				c-0.6,0-0.9,0.3-0.9,0.7v0c0,0.5,0.6,0.6,1.1,0.8c0.7,0.2,1.3,0.4,1.3,1.1v0c0,0.7-0.6,1.2-1.4,1.2
				C332.1,24.9,331.4,24.7,331,24.3z"/>
		</g>
		<g class="st0">
			<path class="st1" d="M240.2,32.4L240.2,32.4c0-1.3,1-2.2,2-2.2c0.8,0,1.3,0.5,1.7,1v-2.6h0.4v5.8h-0.4v-0.9c-0.4,0.5-0.9,1-1.7,1
				C241.2,34.5,240.2,33.7,240.2,32.4z M243.9,32.4L243.9,32.4c0-1.1-0.8-1.8-1.7-1.8c-0.9,0-1.6,0.6-1.6,1.7v0
				c0,1.1,0.7,1.8,1.6,1.8C243.1,34.1,243.9,33.4,243.9,32.4z"/>
			<path class="st1" d="M245.5,32.4L245.5,32.4c0-1.2,0.8-2.1,1.9-2.1c1.1,0,1.9,0.9,1.9,2.1c0,0.1,0,0.1,0,0.2h-3.4
				c0.1,1,0.8,1.6,1.6,1.6c0.6,0,1.1-0.3,1.4-0.6l0.3,0.2c-0.4,0.4-0.9,0.8-1.7,0.8C246.4,34.5,245.5,33.7,245.5,32.4z M248.8,32.2
				c-0.1-0.8-0.5-1.6-1.5-1.6c-0.8,0-1.4,0.7-1.5,1.6H248.8z"/>
			<path class="st1" d="M252.9,28.8h2c1.2,0,2.1,0.6,2.1,1.7v0c0,1.2-1,1.8-2.2,1.8h-1.5v2.1h-0.4V28.8z M254.8,31.9
				c1,0,1.7-0.5,1.7-1.4v0c0-0.9-0.7-1.4-1.7-1.4h-1.6v2.7H254.8z"/>
			<path class="st1" d="M258.2,28.7h0.5v0.5h-0.5V28.7z M258.2,30.3h0.4v4.1h-0.4V30.3z"/>
			<path class="st1" d="M259.9,32.4L259.9,32.4c0-1.2,0.9-2.2,2.1-2.2c0.8,0,1.2,0.4,1.6,0.8l-0.3,0.3c-0.4-0.4-0.8-0.7-1.4-0.7
				c-0.9,0-1.6,0.8-1.6,1.8v0c0,1,0.7,1.8,1.7,1.8c0.6,0,1-0.3,1.4-0.7l0.3,0.2c-0.4,0.5-0.9,0.8-1.7,0.8
				C260.8,34.5,259.9,33.5,259.9,32.4z"/>
			<path class="st1" d="M264.7,28.6h0.4v2.5c0.3-0.5,0.7-0.9,1.5-0.9c1,0,1.6,0.7,1.6,1.7v2.5h-0.4V32c0-0.8-0.5-1.4-1.3-1.4
				c-0.8,0-1.4,0.6-1.4,1.5v2.4h-0.4V28.6z"/>
			<path class="st1" d="M269.6,28.7h0.5v0.5h-0.5V28.7z M269.7,30.3h0.4v4.1h-0.4V30.3z"/>
			<path class="st1" d="M271.6,30.3h0.4v0.8c0.3-0.5,0.7-0.9,1.5-0.9c1,0,1.6,0.7,1.6,1.7v2.5h-0.4V32c0-0.8-0.5-1.4-1.3-1.4
				c-0.8,0-1.4,0.6-1.4,1.5v2.4h-0.4V30.3z"/>
			<path class="st1" d="M276.2,32.4L276.2,32.4c0-1.2,0.9-2.2,2.1-2.2c0.8,0,1.2,0.4,1.6,0.8l-0.3,0.3c-0.4-0.4-0.8-0.7-1.4-0.7
				c-0.9,0-1.6,0.8-1.6,1.8v0c0,1,0.7,1.8,1.7,1.8c0.6,0,1-0.3,1.4-0.7l0.3,0.2c-0.4,0.5-0.9,0.8-1.7,0.8
				C277.1,34.5,276.2,33.5,276.2,32.4z"/>
			<path class="st1" d="M281.1,28.6h0.4v2.5c0.3-0.5,0.7-0.9,1.5-0.9c1,0,1.6,0.7,1.6,1.7v2.5h-0.4V32c0-0.8-0.5-1.4-1.3-1.4
				c-0.8,0-1.4,0.6-1.4,1.5v2.4h-0.4V28.6z"/>
			<path class="st1" d="M285.6,33.2L285.6,33.2c0-0.9,0.7-1.3,1.8-1.3c0.6,0,1,0.1,1.4,0.2v-0.2c0-0.8-0.5-1.2-1.3-1.2
				c-0.5,0-0.9,0.1-1.3,0.3l-0.1-0.3c0.4-0.2,0.9-0.4,1.4-0.4c0.6,0,1,0.2,1.3,0.4c0.3,0.3,0.4,0.6,0.4,1.2v2.5h-0.4v-0.7
				c-0.3,0.4-0.8,0.8-1.6,0.8C286.5,34.5,285.6,34.1,285.6,33.2z M288.8,32.9v-0.5c-0.3-0.1-0.8-0.2-1.4-0.2c-0.9,0-1.3,0.4-1.3,1v0
				c0,0.6,0.6,0.9,1.2,0.9C288.1,34.1,288.8,33.6,288.8,32.9z"/>
		</g>
		<g class="st0">
			<path class="st1" d="M240.5,1.2h0.4l2.2,3.3l2.2-3.3h0.4v5.6h-0.4V1.9l-2.2,3.2h0l-2.2-3.2v4.9h-0.4V1.2z"/>
			<path class="st1" d="M247.1,4.8L247.1,4.8c0-1.2,0.8-2.1,1.9-2.1c1.1,0,1.9,0.9,1.9,2.1c0,0.1,0,0.1,0,0.2h-3.4
				c0.1,1,0.8,1.6,1.6,1.6c0.6,0,1.1-0.3,1.4-0.6l0.3,0.2c-0.4,0.4-0.9,0.8-1.7,0.8C248,6.9,247.1,6,247.1,4.8z M250.5,4.6
				C250.4,3.7,250,3,249,3c-0.8,0-1.4,0.7-1.5,1.6H250.5z"/>
		</g>
		<g class="st0">
			<path class="st1" d="M251.7,5.6L251.7,5.6c0-0.9,0.7-1.3,1.8-1.3c0.6,0,1,0.1,1.4,0.2V4.3c0-0.8-0.5-1.2-1.3-1.2
				c-0.5,0-0.9,0.1-1.3,0.3L252.1,3c0.4-0.2,0.9-0.4,1.4-0.4c0.6,0,1,0.2,1.3,0.4c0.3,0.3,0.4,0.6,0.4,1.2v2.5h-0.4V6.1
				c-0.3,0.4-0.8,0.8-1.6,0.8C252.6,6.9,251.7,6.5,251.7,5.6z M254.9,5.3V4.8c-0.3-0.1-0.8-0.2-1.4-0.2c-0.9,0-1.3,0.4-1.3,1v0
				c0,0.6,0.6,0.9,1.2,0.9C254.2,6.5,254.9,6,254.9,5.3z"/>
		</g>
		<g class="st0">
			<path class="st1" d="M256.8,5.8V3.1h-0.6V2.7h0.6V1.4h0.4v1.3h1.4v0.4h-1.4v2.6c0,0.6,0.3,0.8,0.8,0.8c0.2,0,0.4,0,0.6-0.1v0.4
				c-0.2,0.1-0.4,0.1-0.7,0.1C257.4,6.9,256.8,6.5,256.8,5.8z"/>
			<path class="st1" d="M262.3,1.2h2c1.2,0,2.1,0.6,2.1,1.7v0c0,1.2-1,1.8-2.2,1.8h-1.5v2.1h-0.4V1.2z M264.3,4.3
				c1,0,1.7-0.5,1.7-1.4v0c0-0.9-0.7-1.4-1.7-1.4h-1.6v2.7H264.3z"/>
		</g>
		<g class="st0">
			<path class="st1" d="M267.6,2.7h0.4v1.2c0.3-0.7,1-1.3,1.8-1.2v0.4h0c-0.9,0-1.8,0.7-1.8,2v1.7h-0.4V2.7z"/>
		</g>
		<g class="st0">
			<path class="st1" d="M270.3,4.8L270.3,4.8c0-1.2,0.9-2.2,2.1-2.2c1.2,0,2.1,1,2.1,2.1v0c0,1.1-0.9,2.1-2.1,2.1
				C271.2,6.9,270.3,5.9,270.3,4.8z M274,4.8L274,4.8c0-1-0.7-1.8-1.7-1.8c-1,0-1.7,0.8-1.7,1.8v0c0,1,0.7,1.8,1.7,1.8
				C273.4,6.5,274,5.7,274,4.8z"/>
			<path class="st1" d="M277.8,6l0.3-0.3c0.6,0.6,1.2,0.8,2,0.8c0.8,0,1.4-0.5,1.4-1.1v0c0-0.6-0.3-0.9-1.6-1.2
				c-1.3-0.3-1.9-0.7-1.9-1.6v0c0-0.8,0.8-1.5,1.8-1.5c0.8,0,1.4,0.2,1.9,0.7l-0.3,0.3c-0.5-0.5-1.1-0.6-1.7-0.6
				c-0.8,0-1.4,0.5-1.4,1.1v0c0,0.6,0.3,1,1.6,1.2c1.3,0.3,1.8,0.7,1.8,1.5v0c0,0.9-0.8,1.5-1.9,1.5C279.2,6.9,278.5,6.6,277.8,6z"
				/>
			<path class="st1" d="M283.1,6.1h0.5v0.7h-0.5V6.1z"/>
			<path class="st1" d="M287.3,1.2h0.4l2.6,5.6h-0.5l-0.7-1.6h-3.3l-0.7,1.6h-0.4L287.3,1.2z M288.9,4.9l-1.5-3.2L286,4.9H288.9z"/>
			<path class="st1" d="M291.3,6.1h0.5v0.7h-0.5V6.1z"/>
		</g>
		<g class="st0">
			<path class="st1" d="M104.7,128.9l2.3-1.9c0.9-0.7,1.2-1.1,1.2-1.7c0-0.6-0.4-0.9-0.9-0.9c-0.5,0-0.9,0.3-1.4,0.9l-1.1-0.9
				c0.7-0.9,1.4-1.4,2.6-1.4c1.4,0,2.4,0.8,2.4,2.2v0c0,1.2-0.6,1.7-1.8,2.7l-1.1,0.9h3v1.3h-5.2V128.9z"/>
		</g>
		<g class="st0">
			<path class="st1" d="M111,126.7L111,126.7c0-2,1.3-3.6,3.1-3.6c1.8,0,3.1,1.6,3.1,3.6v0c0,2-1.2,3.6-3.1,3.6
				C112.2,130.2,111,128.7,111,126.7z M115.6,126.7L115.6,126.7c0-1.3-0.6-2.2-1.5-2.2s-1.5,0.9-1.5,2.2v0c0,1.3,0.6,2.2,1.5,2.2
				C115,128.9,115.6,127.9,115.6,126.7z"/>
		</g>
		<g class="st0">
			<path class="st1" d="M119.5,124.6l-1.2,0.3l-0.3-1.3l2-0.6h1v7h-1.5V124.6z"/>
			<path class="st1" d="M122.5,126.7L122.5,126.7c0-2,1.3-3.6,3.1-3.6c1.8,0,3.1,1.6,3.1,3.6v0c0,2-1.2,3.6-3.1,3.6
				C123.7,130.2,122.5,128.7,122.5,126.7z M127.1,126.7L127.1,126.7c0-1.3-0.6-2.2-1.5-2.2s-1.5,0.9-1.5,2.2v0
				c0,1.3,0.6,2.2,1.5,2.2C126.5,128.9,127.1,127.9,127.1,126.7z"/>
		</g>
		<g class="st0">
			<path class="st1" d="M205.3,128.9l2.3-1.9c0.9-0.7,1.2-1.1,1.2-1.7c0-0.6-0.4-0.9-0.9-0.9c-0.5,0-0.9,0.3-1.4,0.9l-1.1-0.9
				c0.7-0.9,1.4-1.4,2.6-1.4c1.4,0,2.4,0.8,2.4,2.2v0c0,1.2-0.6,1.7-1.8,2.7l-1.1,0.9h3v1.3h-5.2V128.9z"/>
		</g>
		<g class="st0">
			<path class="st1" d="M211.5,126.7L211.5,126.7c0-2,1.3-3.6,3.1-3.6c1.8,0,3.1,1.6,3.1,3.6v0c0,2-1.2,3.6-3.1,3.6
				C212.8,130.2,211.5,128.7,211.5,126.7z M216.2,126.7L216.2,126.7c0-1.3-0.6-2.2-1.5-2.2c-0.9,0-1.5,0.9-1.5,2.2v0
				c0,1.3,0.6,2.2,1.5,2.2S216.2,127.9,216.2,126.7z"/>
		</g>
		<g class="st0">
			<path class="st1" d="M220,124.6l-1.2,0.3l-0.3-1.3l2-0.6h1v7H220V124.6z"/>
			<path class="st1" d="M222.9,129l1.1-1c0.5,0.5,1,0.8,1.7,0.8c0.6,0,1-0.3,1-0.8v0c0-0.6-0.5-0.9-1.4-0.9h-0.6l-0.2-1l1.7-1.7
				h-2.7v-1.3h4.7v1.2l-1.8,1.7c0.9,0.2,1.9,0.7,1.9,2v0c0,1.3-1,2.3-2.5,2.3C224.3,130.2,223.5,129.8,222.9,129z"/>
		</g>
		<g class="st0">
			<path class="st1" d="M240,128.9l2.3-1.9c0.9-0.7,1.2-1.1,1.2-1.7c0-0.6-0.4-0.9-0.9-0.9c-0.5,0-0.9,0.3-1.4,0.9l-1.1-0.9
				c0.7-0.9,1.4-1.4,2.6-1.4c1.4,0,2.4,0.8,2.4,2.2v0c0,1.2-0.6,1.7-1.8,2.7l-1.1,0.9h3v1.3H240V128.9z"/>
		</g>
		<g class="st0">
			<path class="st1" d="M246.2,126.7L246.2,126.7c0-2,1.3-3.6,3.1-3.6c1.8,0,3.1,1.6,3.1,3.6v0c0,2-1.2,3.6-3.1,3.6
				S246.2,128.7,246.2,126.7z M250.9,126.7L250.9,126.7c0-1.3-0.6-2.2-1.5-2.2c-0.9,0-1.5,0.9-1.5,2.2v0c0,1.3,0.6,2.2,1.5,2.2
				C250.3,128.9,250.9,127.9,250.9,126.7z"/>
		</g>
		<g class="st0">
			<path class="st1" d="M254.7,124.6l-1.2,0.3l-0.3-1.3l2-0.6h1v7h-1.5V124.6z"/>
			<path class="st1" d="M261.1,128.6h-3.4l-0.2-1.1l3.8-4.4h1.3v4.3h0.9v1.2h-0.9v1.5h-1.5V128.6z M261.1,127.4v-2.2l-1.9,2.2H261.1
				z"/>
		</g>
		<g class="st0">
			<path class="st1" d="M342.5,128.9l2.3-1.9c0.9-0.7,1.2-1.1,1.2-1.7c0-0.6-0.4-0.9-0.9-0.9c-0.5,0-0.9,0.3-1.4,0.9l-1.1-0.9
				c0.7-0.9,1.4-1.4,2.6-1.4c1.4,0,2.4,0.8,2.4,2.2v0c0,1.2-0.6,1.7-1.8,2.7l-1.1,0.9h3v1.3h-5.2V128.9z"/>
		</g>
		<g class="st0">
			<path class="st1" d="M348.7,126.7L348.7,126.7c0-2,1.3-3.6,3.1-3.6c1.8,0,3.1,1.6,3.1,3.6v0c0,2-1.2,3.6-3.1,3.6
				S348.7,128.7,348.7,126.7z M353.4,126.7L353.4,126.7c0-1.3-0.6-2.2-1.5-2.2c-0.9,0-1.5,0.9-1.5,2.2v0c0,1.3,0.6,2.2,1.5,2.2
				C352.8,128.9,353.4,127.9,353.4,126.7z"/>
		</g>
		<g class="st0">
			<path class="st1" d="M357.2,124.6l-1.2,0.3l-0.3-1.3l2-0.6h1v7h-1.5V124.6z"/>
			<path class="st1" d="M363.6,124.5h-3.3v-1.3h5v1.2l-3.1,5.8h-1.7L363.6,124.5z"/>
		</g>
		<g class="st0">
			<path class="st1" d="M377.9,128.9l2.3-1.9c0.9-0.7,1.2-1.1,1.2-1.7c0-0.6-0.4-0.9-0.9-0.9c-0.5,0-0.9,0.3-1.4,0.9l-1.1-0.9
				c0.7-0.9,1.4-1.4,2.6-1.4c1.4,0,2.4,0.8,2.4,2.2v0c0,1.2-0.6,1.7-1.8,2.7l-1.1,0.9h3v1.3h-5.2V128.9z"/>
		</g>
		<g class="st0">
			<path class="st1" d="M384.1,126.7L384.1,126.7c0-2,1.3-3.6,3.1-3.6c1.8,0,3.1,1.6,3.1,3.6v0c0,2-1.2,3.6-3.1,3.6
				C385.4,130.2,384.1,128.7,384.1,126.7z M388.8,126.7L388.8,126.7c0-1.3-0.6-2.2-1.5-2.2c-0.9,0-1.5,0.9-1.5,2.2v0
				c0,1.3,0.6,2.2,1.5,2.2S388.8,127.9,388.8,126.7z"/>
		</g>
		<g class="st0">
			<path class="st1" d="M392.6,124.6l-1.2,0.3l-0.3-1.3l2-0.6h1v7h-1.5V124.6z"/>
			<path class="st1" d="M395.5,128.2L395.5,128.2c0-0.9,0.4-1.4,1.1-1.7c-0.5-0.3-0.9-0.8-0.9-1.5v0c0-1.1,1-1.9,2.5-1.9
				s2.5,0.8,2.5,1.9v0c0,0.8-0.3,1.2-0.9,1.5c0.7,0.4,1.1,0.8,1.1,1.6v0c0,1.3-1.1,2.1-2.7,2.1S395.5,129.4,395.5,128.2z
				 M399.4,128.1L399.4,128.1c0-0.6-0.5-0.9-1.2-0.9s-1.2,0.3-1.2,0.9v0c0,0.5,0.4,0.9,1.2,0.9S399.4,128.6,399.4,128.1z
				 M399.2,125.1L399.2,125.1c0-0.5-0.4-0.8-1-0.8s-1,0.4-1,0.8v0c0,0.5,0.4,0.9,1,0.9S399.2,125.6,399.2,125.1z"/>
		</g>
		<g class="st0">
			<path class="st1" d="M411.1,128.9l2.3-1.9c0.9-0.7,1.2-1.1,1.2-1.7c0-0.6-0.4-0.9-0.9-0.9c-0.5,0-0.9,0.3-1.4,0.9l-1.1-0.9
				c0.7-0.9,1.4-1.4,2.6-1.4c1.4,0,2.4,0.8,2.4,2.2v0c0,1.2-0.6,1.7-1.8,2.7l-1.1,0.9h3v1.3h-5.2V128.9z"/>
		</g>
		<g class="st0">
			<path class="st1" d="M417.4,126.7L417.4,126.7c0-2,1.3-3.6,3.1-3.6c1.8,0,3.1,1.6,3.1,3.6v0c0,2-1.2,3.6-3.1,3.6
				C418.7,130.2,417.4,128.7,417.4,126.7z M422.1,126.7L422.1,126.7c0-1.3-0.6-2.2-1.5-2.2c-0.9,0-1.5,0.9-1.5,2.2v0
				c0,1.3,0.6,2.2,1.5,2.2S422.1,127.9,422.1,126.7z"/>
		</g>
		<g class="st0">
			<path class="st1" d="M425.9,124.6l-1.2,0.3l-0.3-1.3l2-0.6h1v7h-1.5V124.6z"/>
			<path class="st1" d="M429.1,129.4l0.8-1.2c0.5,0.4,0.9,0.6,1.5,0.6c0.9,0,1.3-0.6,1.4-1.6c-0.3,0.3-0.8,0.5-1.4,0.5
				c-1.5,0-2.5-0.8-2.5-2.3v0c0-1.4,1.1-2.4,2.7-2.4c0.9,0,1.5,0.2,2,0.8c0.5,0.5,0.8,1.3,0.8,2.6v0c0,2.3-1.1,3.8-3.1,3.8
				C430.4,130.2,429.7,129.9,429.1,129.4z M432.9,125.4L432.9,125.4c0-0.6-0.5-1.1-1.2-1.1c-0.8,0-1.2,0.4-1.2,1.1v0
				c0,0.6,0.5,1,1.2,1S432.9,126,432.9,125.4z"/>
		</g>
		<line class="st2" x1="0.2" y1="103.7" x2="454.6" y2="103.7"/>
		<line class="st3" x1="0.4" y1="100.9" x2="0.4" y2="106.6"/>
		<line class="st3" x1="34.6" y1="100.9" x2="34.6" y2="106.6"/>
		<line class="st3" x1="68.9" y1="100.9" x2="68.9" y2="106.6"/>
		<line class="st3" x1="103.1" y1="100.9" x2="103.1" y2="106.6"/>
		<line class="st3" x1="137.3" y1="100.9" x2="137.3" y2="106.6"/>
		<line class="st3" x1="171.6" y1="100.9" x2="171.6" y2="106.6"/>
		<line class="st3" x1="205.8" y1="100.9" x2="205.8" y2="106.6"/>
		<line class="st3" x1="240" y1="100.9" x2="240" y2="106.6"/>
		<line class="st3" x1="274.2" y1="100.9" x2="274.2" y2="106.6"/>
		<line class="st3" x1="308.5" y1="100.9" x2="308.5" y2="106.6"/>
		<line class="st3" x1="342.7" y1="100.9" x2="342.7" y2="106.6"/>
		<line class="st3" x1="376.9" y1="100.9" x2="376.9" y2="106.6"/>
		<line class="st3" x1="411.2" y1="100.9" x2="411.2" y2="106.6"/>
		<rect x="0.3" y="91.4" class="st4" width="68.7" height="4.1"/>
		<rect x="102.6" y="91" class="st5" width="35.5" height="4.5"/>
		<rect x="137.3" y="90.9" class="st6" width="34.5" height="4.6"/>
		<rect x="377" y="90.9" class="st5" width="62.1" height="4.6"/>
		<rect x="205.1" y="90.9" class="st7" width="34.5" height="4.6"/>
		<rect x="239.9" y="90.9" class="st8" width="137.5" height="4.5"/>
		<rect x="238.9" y="78.4" class="st9" width="104" height="5.3"/>
	</g>
</g>
</svg>
